# xmcd
#
# Track frame offsets:
#	150
#	12772
#	33891
#	62459
#	84962
#	112309
#	123089
#	156024
#	176370
#	207068
#	232874
#	254919
#	277271
#	298195
#	336238
#
# Disc length: 4733 seconds
#
# Revision: 8
# Processed by: cddbd v1.5.1PL2 Copyright (c) Steve Scherf et al.
# Submitted via: audiograbber 1.83.01
#
DISCID=cf127b0f
DTITLE=Jaroslaw Smietana - Parallel Worlds
DYEAR=2003
DGENRE=Jazz
TTITLE0=A Good Year
TTITLE1=Dwukolorowa dziewczyna
TTITLE2=Parisian Hot Stuff
TTITLE3=El Cerritto
TTITLE4=Variations on J.L.
TTITLE5=Parallel Worlds
TTITLE6=Witchi Tai Too
TTITLE7=Forest Power
TTITLE8=Volunteered Slavery
TTITLE9=Big Bad Wolf
TTITLE10=Ty i Krakow
TTITLE11=Mr. Soul
TTITLE12=Love Letters
TTITLE13=The First Take
TTITLE14=Data
EXTD=
EXTT0=
EXTT1=
EXTT2=
EXTT3=
EXTT4=
EXTT5=
EXTT6=
EXTT7=
EXTT8=
EXTT9=
EXTT10=
EXTT11=
EXTT12=
EXTT13=
EXTT14=
PLAYORDER=
